<svg xmlns="http://www.w3.org/2000/svg" viewBox="0 0 399.86 105.99"><defs><style>.cls-1{fill:#fff;}</style></defs><g id="Layer_2" data-name="Layer 2"><g id="ƒŒƒCƒ__1" data-name="ƒŒƒCƒ„[_1"><path class="cls-1" d="M50.56,102.37,0,67s21.46-15.84,39.43-3.7L63.49,79.9,66.43,78,.17,31.55a191.83,191.83,0,0,0,30.3-16A229.78,229.78,0,0,0,51.12,0l51.36,35.78S79.4,51.22,63.31,39.89,38.47,22.83,38.47,22.83l-2.81,1.86,66.42,46.52s-9.55,2.76-28,14.13C57.53,95.56,50.56,102.37,50.56,102.37Z"/><path class="cls-1" d="M125.93,10.81a2.46,2.46,0,0,0-2.11,1.12,6.13,6.13,0,0,0-.8,3.5,9.27,9.27,0,0,0,.24,2.18,5.12,5.12,0,0,0,1,2,9.94,9.94,0,0,0,2.14,2,32.2,32.2,0,0,0,3.7,2.18,19,19,0,0,1,3.84,2.61,12.87,12.87,0,0,1,2.61,3.23A14.08,14.08,0,0,1,138,33.77a27.83,27.83,0,0,1,.47,5.38q0,6.62-3.21,10.31t-9.61,3.7A12.8,12.8,0,0,1,119.92,52a11.29,11.29,0,0,1-3.77-2.94A12.9,12.9,0,0,1,114,45.2a21.75,21.75,0,0,1-1-3.93l9.32-1.33a12.32,12.32,0,0,0,.89,4.17,2.6,2.6,0,0,0,2.54,1.78,2.46,2.46,0,0,0,2.08-1.19c.56-.79.83-2.33.83-4.62a14.58,14.58,0,0,0-.26-3,5.34,5.34,0,0,0-1.06-2.18,10.37,10.37,0,0,0-2.18-2c-.93-.63-2.12-1.37-3.57-2.21a17.62,17.62,0,0,1-6.11-5.45A14.77,14.77,0,0,1,113.31,17a16.09,16.09,0,0,1,.86-5.35,12.22,12.22,0,0,1,2.48-4.23,11,11,0,0,1,4-2.77,13.77,13.77,0,0,1,5.41-1,12.31,12.31,0,0,1,5.36,1.06A11.16,11.16,0,0,1,135,7.37,12.3,12.3,0,0,1,137.2,11a22.4,22.4,0,0,1,1.09,3.86l-9.19,1.65a20,20,0,0,0-.92-4.12A2.23,2.23,0,0,0,125.93,10.81Z"/><path class="cls-1" d="M151.7,16.49V41.13a20.42,20.42,0,0,0,.1,2.32,3.86,3.86,0,0,0,.36,1.35,1.35,1.35,0,0,0,.7.66,3,3,0,0,0,1.09.17,6.57,6.57,0,0,0,2.37-.73V16.49h9.25V52.17h-6.93l-1.26-3.37a11.39,11.39,0,0,1-3.07,2.9,7.25,7.25,0,0,1-4,1.13c-2.77,0-4.78-.9-6-2.71s-1.85-4.82-1.85-9V16.49Z"/><path class="cls-1" d="M178.39,45.16H189.1v7H168.55V44.44l11.63-20.95H169.8v-7h20v7.73Z"/><path class="cls-1" d="M202.31,16.49V41.13a20.42,20.42,0,0,0,.1,2.32,3.86,3.86,0,0,0,.36,1.35,1.35,1.35,0,0,0,.7.66,3,3,0,0,0,1.09.17,6.57,6.57,0,0,0,2.37-.73V16.49h9.25V52.17h-6.93L208,48.8a11.39,11.39,0,0,1-3.07,2.9,7.25,7.25,0,0,1-4,1.13c-2.77,0-4.78-.9-6-2.71s-1.85-4.82-1.85-9V16.49Z"/><path class="cls-1" d="M220.81,52.17V3.6h9.25v26l4.69-13.08h9.12L237,31.42l8.19,20.75H235l-5-16.59V52.17Z"/><path class="cls-1" d="M247.11,11.86V3.6h10v8.26Zm.39,40.31V16.49h9.25V52.17Z"/><path class="cls-1" d="M315.09,4.6,310,52.17H297.72l-3.11-39.32-3.24,39.32h-12L274.26,4.6h9.45l2.44,39,3.24-39h11l3.11,38.85L306.37,4.6Z"/><path class="cls-1" d="M316.08,34.33a38.72,38.72,0,0,1,.9-9.12,15.41,15.41,0,0,1,2.54-5.78,9.21,9.21,0,0,1,3.86-3,13,13,0,0,1,4.93-.89,13.44,13.44,0,0,1,4.89.86,8.73,8.73,0,0,1,3.86,3,15.73,15.73,0,0,1,2.51,5.78,39.25,39.25,0,0,1,.89,9.19,38.32,38.32,0,0,1-.89,9.12,15.12,15.12,0,0,1-2.51,5.65A8.7,8.7,0,0,1,333.2,52a14.94,14.94,0,0,1-9.82,0,8.8,8.8,0,0,1-3.86-2.94A15,15,0,0,1,317,43.38,37.91,37.91,0,0,1,316.08,34.33Zm9.52,0q0,3.77.13,6.11a21.7,21.7,0,0,0,.46,3.7,3.61,3.61,0,0,0,.86,1.82,1.91,1.91,0,0,0,1.32.46,1.8,1.8,0,0,0,1.29-.46,3.52,3.52,0,0,0,.79-1.79,23.6,23.6,0,0,0,.43-3.66q.14-2.35.14-6.18t-.14-6.25a22,22,0,0,0-.46-3.76,3.83,3.83,0,0,0-.86-1.85,1.77,1.77,0,0,0-1.25-.5,1.72,1.72,0,0,0-1.26.53,4.07,4.07,0,0,0-.86,1.88,22.12,22.12,0,0,0-.46,3.77Q325.59,30.57,325.6,34.33Z"/><path class="cls-1" d="M344.43,52.17V16.49h6.27L352.42,21a10.67,10.67,0,0,1,2.48-3.76,4.91,4.91,0,0,1,3.47-1.39,6.87,6.87,0,0,1,2.05.26v9.05a6,6,0,0,0-2.71-.52,3.71,3.71,0,0,0-2.32.76,6.88,6.88,0,0,0-1.71,1.94V52.17Z"/><path class="cls-1" d="M363.39,3.6h9.25V52.17h-9.25Z"/><path class="cls-1" d="M376.6,34.33a68.55,68.55,0,0,1,.46-8.46A19.82,19.82,0,0,1,378.62,20a7.51,7.51,0,0,1,2.9-3.4,8.83,8.83,0,0,1,4.6-1.09,6.88,6.88,0,0,1,4.49,1.58V3.6h9.25V52.17h-6.28l-2.11-3.77a14.87,14.87,0,0,1-3,3.17,6.05,6.05,0,0,1-3.77,1.26,7.4,7.4,0,0,1-3.47-.79,6.26,6.26,0,0,1-2.51-2.85,19,19,0,0,1-1.55-5.65A65.85,65.85,0,0,1,376.6,34.33Zm11.76,11.3a5,5,0,0,0,2.25-.73V21.51a9,9,0,0,0-1.92-.33,2,2,0,0,0-1.48.56,4.11,4.11,0,0,0-.86,2.08A28.44,28.44,0,0,0,386,28c-.06,1.74-.1,4-.1,6.71,0,2.33,0,4.22.13,5.65a20.38,20.38,0,0,0,.43,3.33,3.15,3.15,0,0,0,.76,1.59A1.8,1.8,0,0,0,388.36,45.63Z"/><path class="cls-1" d="M126.52,98.93,119.46,75.3V98.93H116.1V69h4.61l7.47,25.17L135.08,69h4.57v29.9h-3.49V75.3l-6.52,23.63Z"/><path class="cls-1" d="M153,96.69a5.09,5.09,0,0,0,1.85-.31,4.84,4.84,0,0,0,1.39-.81,5.19,5.19,0,0,0,1-1.12,5.94,5.94,0,0,0,.6-1.25l2.91.63a8.82,8.82,0,0,1-1.06,2.07A8,8,0,0,1,158,97.67a7.76,7.76,0,0,1-2.28,1.22,8.7,8.7,0,0,1-2.93.46,9.43,9.43,0,0,1-3.15-.56,7.44,7.44,0,0,1-2.87-1.89,9.76,9.76,0,0,1-2.08-3.57,17.29,17.29,0,0,1-.79-5.61,17.93,17.93,0,0,1,.77-5.67,10.42,10.42,0,0,1,2-3.63,6.93,6.93,0,0,1,2.76-2,8.87,8.87,0,0,1,3.11-.58,7.54,7.54,0,0,1,6.46,3c1.46,2,2.18,5.11,2.18,9.43H147.33a16.15,16.15,0,0,0,.54,4.26,7.1,7.1,0,0,0,1.29,2.57,4,4,0,0,0,1.78,1.27A6.61,6.61,0,0,0,153,96.69Zm-.25-18.32a4.54,4.54,0,0,0-3.61,1.73c-1,1.15-1.57,3-1.79,5.63h10.47a10,10,0,0,0-1.39-5.49A4.26,4.26,0,0,0,152.77,78.37Z"/><path class="cls-1" d="M164.73,98.93V76.51h2.41l.58,2.65a7.69,7.69,0,0,1,3.05-2.53,8,8,0,0,1,3.18-.75q4.16,0,5.48,3.57a7.05,7.05,0,0,1,3.06-2.76,8.77,8.77,0,0,1,3.63-.81,5.48,5.48,0,0,1,4.69,2.06q1.55,2.06,1.54,6.46V98.93H189V84.23a8.13,8.13,0,0,0-.87-4.34,3.34,3.34,0,0,0-3-1.31,4.8,4.8,0,0,0-2.91.94A10,10,0,0,0,180,81.74c0,.39.09.81.12,1.27s0,.92,0,1.39V98.93h-3.32V84.23a8.13,8.13,0,0,0-.87-4.34,3.33,3.33,0,0,0-3-1.31,4.8,4.8,0,0,0-2.77.85,10.61,10.61,0,0,0-2.18,2.06V98.93Z"/><path class="cls-1" d="M196.92,98.93V68.41h3.32V78.54a7.55,7.55,0,0,1,2.45-2,7.27,7.27,0,0,1,3.28-.71,5.69,5.69,0,0,1,4.86,2.64,11.38,11.38,0,0,1,1.52,3.59,22.27,22.27,0,0,1,.56,5.36q0,5.82-2.18,8.85a7.08,7.08,0,0,1-6.09,3,5.78,5.78,0,0,1-2.72-.6A6.26,6.26,0,0,1,200,97.19l-.37,1.74Zm7.68-20.31a4.31,4.31,0,0,0-2.37.69,10.65,10.65,0,0,0-2,1.64V95.07a7.4,7.4,0,0,0,1.68,1.33,4.06,4.06,0,0,0,2.06.54,4.64,4.64,0,0,0,2.2-.52,4.52,4.52,0,0,0,1.72-1.68,9.47,9.47,0,0,0,1.13-3,22,22,0,0,0,.39-4.47,20.86,20.86,0,0,0-.35-4.15,8.09,8.09,0,0,0-1-2.66A3.74,3.74,0,0,0,206.53,79,4.46,4.46,0,0,0,204.6,78.62Z"/><path class="cls-1" d="M225.16,96.69a5.09,5.09,0,0,0,1.85-.31,4.84,4.84,0,0,0,1.39-.81,5.19,5.19,0,0,0,1-1.12,5.94,5.94,0,0,0,.6-1.25l2.91.63a8.82,8.82,0,0,1-1.06,2.07,8,8,0,0,1-1.67,1.77,7.76,7.76,0,0,1-2.28,1.22,8.7,8.7,0,0,1-2.93.46,9.43,9.43,0,0,1-3.15-.56,7.44,7.44,0,0,1-2.87-1.89,9.76,9.76,0,0,1-2.08-3.57,17.29,17.29,0,0,1-.79-5.61,17.93,17.93,0,0,1,.77-5.67,10.42,10.42,0,0,1,2-3.63,6.93,6.93,0,0,1,2.76-2,8.87,8.87,0,0,1,3.11-.58,7.54,7.54,0,0,1,6.46,3c1.46,2,2.18,5.11,2.18,9.43H219.47a16.15,16.15,0,0,0,.54,4.26,7.1,7.1,0,0,0,1.29,2.57,4,4,0,0,0,1.78,1.27A6.61,6.61,0,0,0,225.16,96.69Zm-.25-18.32a4.54,4.54,0,0,0-3.61,1.73c-1,1.15-1.57,3-1.79,5.63H230a10,10,0,0,0-1.39-5.49A4.26,4.26,0,0,0,224.91,78.37Z"/><path class="cls-1" d="M236.87,98.93V76.51h2.41l.75,3.28Q241.61,76,245,76a8.07,8.07,0,0,1,.87,0,3.91,3.91,0,0,1,.67.12v3.24l-.75-.14a5.47,5.47,0,0,0-.87-.07,3.33,3.33,0,0,0-1.54.36,4.67,4.67,0,0,0-1.29,1,7.36,7.36,0,0,0-1,1.41c-.3.54-.58,1.11-.83,1.69V98.93Z"/><path class="cls-1" d="M254.52,99.35a8.92,8.92,0,0,1-4.92-1.29,7.33,7.33,0,0,1-2.89-3.4l3.12-.92a4.49,4.49,0,0,0,1.85,2.1,5.53,5.53,0,0,0,2.92.77,4.67,4.67,0,0,0,2.91-.94,3.7,3.7,0,0,0,.75-4.63A4.1,4.1,0,0,0,257,89.8a8.57,8.57,0,0,0-1.83-.85c-.68-.24-1.36-.47-2.05-.69a9.24,9.24,0,0,1-4.3-2.39,5.39,5.39,0,0,1-1.31-3.71,6.11,6.11,0,0,1,.58-2.71,5.89,5.89,0,0,1,1.58-2,7.46,7.46,0,0,1,2.29-1.2,8.56,8.56,0,0,1,2.69-.42,8.8,8.8,0,0,1,2.68.38,6.76,6.76,0,0,1,2.08,1,6.88,6.88,0,0,1,2.47,3.32l-3,.91a4.53,4.53,0,0,0-1.39-2.18,4.27,4.27,0,0,0-2.89-.89,4.72,4.72,0,0,0-1.41.21,4,4,0,0,0-1.2.6,2.65,2.65,0,0,0-.85,1,3.25,3.25,0,0,0-.32,1.49,3,3,0,0,0,.34,1.48,2.94,2.94,0,0,0,1,1,7.41,7.41,0,0,0,1.71.79c.69.24,1.49.49,2.4.77a10.29,10.29,0,0,1,4.32,2.39,5.74,5.74,0,0,1,1.58,4.3,6.93,6.93,0,0,1-.54,2.78,6.18,6.18,0,0,1-1.53,2.14,7.23,7.23,0,0,1-2.41,1.39A9.41,9.41,0,0,1,254.52,99.35Z"/><path class="cls-1" d="M265.49,98.93V68.41h3.32V79.12a7.84,7.84,0,0,1,3-2.49,7.6,7.6,0,0,1,3.18-.75,6,6,0,0,1,5,2.06Q281.6,80,281.6,84.4V98.93h-3.32V84.23a7.16,7.16,0,0,0-1-4.34A3.88,3.88,0,0,0,274,78.58a4.91,4.91,0,0,0-2.85.92,12,12,0,0,0-2.34,2.16V98.93Z"/><path class="cls-1" d="M285.92,72.44v-4h3.82v4Zm.25,26.49V76.51h3.32V98.93Z"/><path class="cls-1" d="M294.06,106V76.51h2.41l.58,2.28a7,7,0,0,1,2.55-2.16,7.82,7.82,0,0,1,3.51-.75A5.69,5.69,0,0,1,308,78.52a11.38,11.38,0,0,1,1.52,3.59,22.27,22.27,0,0,1,.56,5.36q0,5.82-2.18,8.85a7.08,7.08,0,0,1-6.09,3,5.52,5.52,0,0,1-4.4-1.75V106Zm7.68-27.37a4.31,4.31,0,0,0-2.37.69,10.65,10.65,0,0,0-2,1.64V95.24a7,7,0,0,0,1.62,1.2,4.37,4.37,0,0,0,2.12.5,4.64,4.64,0,0,0,2.2-.52A4.52,4.52,0,0,0,305,94.74a9.24,9.24,0,0,0,1.12-3,21.21,21.21,0,0,0,.4-4.47,20.86,20.86,0,0,0-.35-4.15,8.09,8.09,0,0,0-1-2.66A3.74,3.74,0,0,0,303.67,79,4.46,4.46,0,0,0,301.74,78.62Z"/></g></g></svg>